# xmcd CD database file
#
# Track frame offsets:
#	150
#	17556
#	33018
#	53613
#	78411
#	94340
#	113248
#	137087
#	146234
#	156542
#	168461
#	181414
#	206333
#	223023
#	256152
#	261367
#	280037
#	294643
#	312857
#	341554
#
# Disc length: 4681 seconds
#
# Revision: 0
# Processed by: cddbd v1.4PL0 Copyright (c) Steve Scherf et al.
# Submitted via: CDex 1.40Release
#
DISCID=28124714
DTITLE=Terry Allen - Lubbock (On Everything)
DYEAR=1979
DGENRE=Country
TTITLE0=Amarillo Highway
TTITLE1=Highplains Jamboree
TTITLE2=Great Joe Bob (a regional tragedy)
TTITLE3=The Wolfman of del Rio
TTITLE4=Lubbock Woman
TTITLE5=The Girl Who Danced Oklahoma
TTITLE6=Truckload of art
TTITLE7=Collector (and the Art Mob)
TTITLE8=Oui (A French Song)
TTITLE9=Rendevouz USA
TTITLE10=Cocktails for Three
TTITLE11=The Beautiful Waitress
TTITLE12=Blue Asian Reds
TTITLE13=New Delhi Freight Train
TTITLE14=FFA
TTITLE15=Flatland Farmer
TTITLE16=My Amigo
TTITLE17=The Pink and Black Song
TTITLE18=The Thirty Years Waltz
TTITLE19=I Just Left Myself
EXTD=YEAR: 1979 ID3G: 2
EXTT0=
EXTT1=
EXTT2=
EXTT3=
EXTT4=
EXTT5=
EXTT6=
EXTT7=
EXTT8=
EXTT9=
EXTT10=
EXTT11=
EXTT12=
EXTT13=
EXTT14=
EXTT15=
EXTT16=
EXTT17=
EXTT18=
EXTT19=
PLAYORDER=
